<svg width="74" height="66" viewBox="0 0 74 66" fill="none" xmlns="http://www.w3.org/2000/svg">
<path d="M7.60986 60.236V30.3152C7.60986 29.522 8.53004 29.0837 9.14593 29.5835L36.5989 51.8623C37.2067 52.3556 38.0795 52.3461 38.6765 51.8399L64.8389 29.6529C65.4511 29.1337 66.3907 29.5688 66.3907 30.3715V60.236C66.3907 61.7972 65.125 63.0629 63.5638 63.0629H10.4367C8.8755 63.0629 7.60986 61.7972 7.60986 60.236Z" fill="#2A3342"/>
<path d="M62.9251 28.1357L38.582 48.8215C37.9843 49.3294 37.1094 49.3386 36.5012 48.8434L11.0815 28.1484C12.5184 25.5506 12.0642 21.7383 11.8156 19.0123C18.2678 22.1091 20.1518 26.1355 20.2422 28.1484C20.8296 26.7032 21.5617 23.4716 20.152 19.0123C17.9988 10.1014 27.9021 5.35061 35.3081 2.77588C34.8876 3.48877 29.9539 10.1286 39.6551 16.6304C48.4592 22.531 48.4592 25.1649 49.8373 28.1994C53.199 27.291 50.3193 18.6027 48.4592 14.3722C56.8053 16.3987 60.3165 21.7743 62.9251 28.1357Z" fill="#2B2358"/>
</svg>
