<svg width="107" height="116" viewBox="0 0 107 116" fill="none" xmlns="http://www.w3.org/2000/svg">
<rect width="29.7581" height="5.44428" transform="matrix(-1 0 0 1 91.8818 54.5442)" fill="#2B2358"/>
<circle r="7.91206" transform="matrix(-1 0 0 1 98.127 57.2663)" fill="#2B2358"/>
<circle r="2.49649" transform="matrix(-1 0 0 1 98.127 57.2663)" fill="white"/>
<rect x="17.9917" y="13.7964" width="51.5397" height="5.44428" transform="rotate(45 17.9917 13.7964)" fill="#2B2358"/>
<circle cx="11.6509" cy="11.3051" r="7.91206" transform="rotate(45 11.6509 11.3051)" fill="#2B2358"/>
<circle cx="11.6509" cy="11.3051" r="2.49649" transform="rotate(45 11.6509 11.3051)" fill="white"/>
<rect width="51.5397" height="5.44428" transform="matrix(0.707107 -0.707107 -0.707107 -0.707107 17.9917 101.377)" fill="#2B2358"/>
<circle r="7.91206" transform="matrix(0.707107 -0.707107 -0.707107 -0.707107 11.6509 103.869)" fill="#2B2358"/>
<circle r="2.49649" transform="matrix(0.707107 -0.707107 -0.707107 -0.707107 11.6509 103.869)" fill="white"/>
<circle r="15.0866" transform="matrix(0.707107 -0.707107 -0.707107 -0.707107 54.0093 57.2664)" fill="#2B2358"/>
<circle r="4.76025" transform="matrix(0.707107 -0.707107 -0.707107 -0.707107 54.0093 57.2663)" fill="white"/>
</svg>
