<svg width="113" height="68" viewBox="0 0 113 68" fill="none" xmlns="http://www.w3.org/2000/svg">
<rect width="29.7581" height="5.44428" transform="matrix(-1 0 0 1 98.79 30.5464)" fill="#2B2358"/>
<circle r="7.91206" transform="matrix(-1 0 0 1 105.035 33.2685)" fill="#2B2358"/>
<circle r="2.49649" transform="matrix(-1 0 0 1 105.035 33.2685)" fill="white"/>
<rect width="51.5397" height="5.44428" transform="matrix(1 0 0 -1 13.3877 36.3113)" fill="#2B2358"/>
<circle r="7.91206" transform="matrix(1 0 0 -1 16.5195 33.5889)" fill="#2B2358"/>
<circle r="2.49649" transform="matrix(1 0 0 -1 16.5194 33.589)" fill="white"/>
<circle r="15.0866" transform="matrix(0.707107 -0.707107 -0.707107 -0.707107 60.9175 33.2686)" fill="#2B2358"/>
<circle r="4.76025" transform="matrix(0.707107 -0.707107 -0.707107 -0.707107 60.9175 33.2685)" fill="white"/>
</svg>
