<svg width="77" height="66" viewBox="0 0 77 66" fill="none" xmlns="http://www.w3.org/2000/svg">
<g clip-path="url(#clip0_282_332)">
<path d="M8.11865 59.1198V30.9015C8.11865 29.874 9.32638 29.3225 10.1029 29.9952L35.2912 51.8175C36.8185 53.1407 39.093 53.1158 40.5911 51.7595L64.5257 30.0903C65.2966 29.3925 66.5296 29.9394 66.5296 30.9792V59.1198C66.5296 62.4309 63.8453 65.1152 60.5342 65.1152H14.1142C10.8029 65.1152 8.11865 62.431 8.11865 59.1198Z" fill="#EFEEF6"/>
<path d="M63.091 28.0658L40.5051 48.5553C39.0055 49.9157 36.7256 49.94 35.1975 48.6117L11.5737 28.0793C13.0015 25.3234 12.5501 21.2792 12.3032 18.3873C18.7148 21.6725 20.587 25.9439 20.6768 28.0793C21.2604 26.5462 21.9879 23.118 20.5871 18.3873C18.4474 8.93415 28.2884 3.89425 35.6479 1.16284C35.23 1.91911 30.3273 8.96293 39.9675 15.8604C48.7162 22.12 48.7162 24.9143 50.0857 28.1333C53.4261 27.1697 50.5646 17.9528 48.7162 13.4648C57.0097 15.6146 60.4989 21.3173 63.091 28.0658Z" fill="black"/>
<path d="M63.091 28.0658L40.5051 48.5553C39.0055 49.9157 36.7256 49.94 35.1975 48.6117L11.5737 28.0793C13.0015 25.3234 12.5501 21.2792 12.3032 18.3873C18.7148 21.6725 20.587 25.9439 20.6768 28.0793C21.2604 26.5462 21.9879 23.118 20.5871 18.3873C18.4474 8.93415 28.2884 3.89425 35.6479 1.16284C35.23 1.91911 30.3273 8.96293 39.9675 15.8604C48.7162 22.12 48.7162 24.9143 50.0857 28.1333C53.4261 27.1697 50.5646 17.9528 48.7162 13.4648C57.0097 15.6146 60.4989 21.3173 63.091 28.0658Z" fill="url(#paint0_linear_282_332)"/>
</g>
<defs>
<linearGradient id="paint0_linear_282_332" x1="37.3324" y1="35.9484" x2="37.3324" y2="-18.7294" gradientUnits="userSpaceOnUse">
<stop stop-color="#2B2358"/>
<stop offset="1" stop-color="#572358"/>
</linearGradient>
<clipPath id="clip0_282_332">
<rect width="76.0746" height="64.9649" fill="white" transform="translate(0.813477 0.297974)"/>
</clipPath>
</defs>
</svg>
