<svg width="74" height="66" viewBox="0 0 74 66" fill="none" xmlns="http://www.w3.org/2000/svg">
<rect x="0.722168" y="0.477661" width="72.5568" height="64.885" rx="11.3075" fill="#2B2358"/>
<path d="M17.2954 50.3023V31.8254C17.2954 31.0322 18.2156 30.5939 18.8315 31.0937L36.3857 45.3395C36.9935 45.8327 37.8663 45.8233 38.4633 45.317L55.1533 31.1631C55.7655 30.6439 56.705 31.0791 56.705 31.8818V50.3023C56.705 51.8636 55.4394 53.1292 53.8782 53.1292H20.1223C18.561 53.1292 17.2954 51.8636 17.2954 50.3023Z" fill="#EFEEF6"/>
<path d="M54.3816 29.7122L38.4006 43.2922C37.8029 43.8001 36.928 43.8093 36.3198 43.3141L19.623 29.7207C20.5864 27.979 20.2818 25.4231 20.1152 23.5954C24.4411 25.6717 25.7042 28.3712 25.7648 29.7207C26.1586 28.7518 26.6495 26.5852 25.7043 23.5954C24.2607 17.6211 30.9004 14.4359 35.8657 12.7097C35.5839 13.1877 32.276 17.6393 38.7802 21.9985C44.6829 25.9545 44.6829 27.7204 45.6069 29.7549C47.8607 29.1459 45.93 23.3209 44.6829 20.4845C50.2786 21.8431 52.6326 25.4472 54.3816 29.7122Z" fill="black"/>
<path d="M54.3816 29.7122L38.4006 43.2922C37.8029 43.8001 36.928 43.8093 36.3198 43.3141L19.623 29.7207C20.5864 27.979 20.2818 25.4231 20.1152 23.5954C24.4411 25.6717 25.7042 28.3712 25.7648 29.7207C26.1586 28.7518 26.6495 26.5852 25.7043 23.5954C24.2607 17.6211 30.9004 14.4359 35.8657 12.7097C35.5839 13.1877 32.276 17.6393 38.7802 21.9985C44.6829 25.9545 44.6829 27.7204 45.6069 29.7549C47.8607 29.1459 45.93 23.3209 44.6829 20.4845C50.2786 21.8431 52.6326 25.4472 54.3816 29.7122Z" fill="#EFEEF6"/>
</svg>
