<svg width="106" height="116" viewBox="0 0 106 116" fill="none" xmlns="http://www.w3.org/2000/svg">
<rect width="29.7581" height="5.44428" transform="matrix(-1 0 0 1 91.6851 54.5491)" fill="#2B2358"/>
<circle r="7.91206" transform="matrix(-1 0 0 1 97.9302 57.271)" fill="#2B2358"/>
<circle r="2.49649" transform="matrix(-1 0 0 1 97.9303 57.2709)" fill="white"/>
<rect x="17.7954" y="13.8008" width="51.5397" height="5.44428" transform="rotate(45 17.7954 13.8008)" fill="#2B2358"/>
<circle cx="11.4546" cy="11.3095" r="7.91206" transform="rotate(45 11.4546 11.3095)" fill="#2B2358"/>
<circle cx="11.4546" cy="11.3096" r="2.49649" transform="rotate(45 11.4546 11.3096)" fill="white"/>
<rect width="51.5397" height="5.44428" transform="matrix(0.707107 -0.707107 -0.707107 -0.707107 17.7954 101.382)" fill="#2B2358"/>
<circle r="7.91206" transform="matrix(0.707107 -0.707107 -0.707107 -0.707107 11.4546 103.873)" fill="#2B2358"/>
<circle r="2.49649" transform="matrix(0.707107 -0.707107 -0.707107 -0.707107 11.4546 103.873)" fill="white"/>
<circle r="15.0866" transform="matrix(0.707107 -0.707107 -0.707107 -0.707107 53.813 57.2708)" fill="#2B2358"/>
<circle r="4.76025" transform="matrix(0.707107 -0.707107 -0.707107 -0.707107 53.813 57.2709)" fill="white"/>
</svg>
