<svg width="74" height="66" viewBox="0 0 74 66" fill="none" xmlns="http://www.w3.org/2000/svg">
<rect x="0.722168" y="0.477661" width="72.5568" height="64.885" rx="11.3075" fill="#2B2358"/>
<path d="M17.2959 47.348V28.8711C17.2959 28.0779 18.2161 27.6396 18.832 28.1394L36.3862 42.3852C36.994 42.8784 37.8668 42.869 38.4638 42.3627L55.1538 28.2088C55.766 27.6896 56.7055 28.1247 56.7055 28.9274V47.348C56.7055 48.9092 55.4399 50.1749 53.8787 50.1749H20.1228C18.5615 50.1749 17.2959 48.9092 17.2959 47.348Z" fill="#EFEEF6"/>
<path d="M54.3821 26.7579L38.4011 40.3379C37.8034 40.8458 36.9285 40.855 36.3203 40.3598L19.6235 26.7664C20.5869 25.0247 20.2823 22.4688 20.1157 20.6411C24.4416 22.7173 25.7047 25.4168 25.7653 26.7664C26.1591 25.7975 26.65 23.6309 25.7048 20.6411C24.2612 14.6668 30.9009 11.4816 35.8662 9.75537C35.5843 10.2333 32.2765 14.685 38.7807 19.0441C44.6834 23.0002 44.6834 24.7661 45.6074 26.8006C47.8612 26.1915 45.9305 20.3665 44.6834 17.5301C50.2791 18.8888 52.6331 22.4928 54.3821 26.7579Z" fill="black"/>
<path d="M54.3821 26.7579L38.4011 40.3379C37.8034 40.8458 36.9285 40.855 36.3203 40.3598L19.6235 26.7664C20.5869 25.0247 20.2823 22.4688 20.1157 20.6411C24.4416 22.7173 25.7047 25.4168 25.7653 26.7664C26.1591 25.7975 26.65 23.6309 25.7048 20.6411C24.2612 14.6668 30.9009 11.4816 35.8662 9.75537C35.5843 10.2333 32.2765 14.685 38.7807 19.0441C44.6834 23.0002 44.6834 24.7661 45.6074 26.8006C47.8612 26.1915 45.9305 20.3665 44.6834 17.5301C50.2791 18.8888 52.6331 22.4928 54.3821 26.7579Z" fill="#EFEEF6"/>
</svg>
